<?xml version="1.0" encoding="utf-8"?>
<!-- Generator: Adobe Illustrator 19.0.0, SVG Export Plug-In . SVG Version: 6.00 Build 0)  -->
<svg version="1.1" id="Layer_1" xmlns="http://www.w3.org/2000/svg" xmlns:xlink="http://www.w3.org/1999/xlink" x="0px" y="0px"
	 viewBox="0 0 289.8 116" style="enable-background:new 0 0 289.8 116;" xml:space="preserve">
<style type="text/css">
	.st0{fill:#FFFFFF;}
</style>
<g id="XMLID_77_">
	<rect id="XMLID_39_" width="289.8" height="116"/>
	<g id="XMLID_40_">
		<g id="XMLID_56_">
			<path id="XMLID_75_" class="st0" d="M13.1,50.8V7.8h8.6v35.8H37v7.1H13.1z"/>
			<path id="XMLID_73_" class="st0" d="M64.8,7.8v7.1H49.5V25h14.4v7.1H49.5v11.5h15.9v7.1H40.9V7.8H64.8z"/>
			<path id="XMLID_71_" class="st0" d="M94.8,7.8v7.1h-9.4v35.8h-8.6V14.9h-9.4V7.8H94.8z"/>
			<path id="XMLID_69_" class="st0" d="M107.3,15.7c0,6.4-1.5,10.9-7.9,11.5v-4.2c2.1-0.4,3.1-2.5,3.1-4.7v-1h-3.1V7.8h7.9V15.7z"/>
			<path id="XMLID_67_" class="st0" d="M121.1,37.4v1.3c0,4,1.1,6.6,5.7,6.6c2.6,0,5.2-1.7,5.2-5.3c0-3.9-2-5.4-7.7-7.3
				c-7.7-2.6-11.2-5.8-11.2-13c0-8.4,5.1-12.6,13.3-12.6c7.7,0,13.3,3.3,13.3,11.5v1.2h-8.3c0-4-1.4-6.4-4.7-6.4
				c-3.9,0-4.9,2.5-4.9,5c0,2.6,0.8,4.3,4.4,5.8l6.7,2.9c6.5,2.8,8.2,6.1,8.2,11.4c0,9.1-5.5,13.2-14.9,13.2
				c-9.8,0-13.6-4.6-13.6-12.5v-1.7H121.1z"/>
			<path id="XMLID_64_" class="st0" d="M159.7,7.8h15.1c8.8,0,11.8,6.4,11.8,12.9c0,8.9-5.5,12.9-13.6,12.9h-4.6v17.1h-8.6V7.8z
				 M168.3,27.3h3.8c3.4,0,5.8-2,5.8-6.4c0-4.2-1.7-6.6-6-6.6h-3.6V27.3z"/>
			<path id="XMLID_62_" class="st0" d="M190.8,50.8V7.8h8.6v35.8h15.3v7.1H190.8z"/>
			<path id="XMLID_59_" class="st0" d="M227,7.8h10.7L249,50.8h-9l-2-9.1h-11.4l-2,9.1h-9L227,7.8z M228.1,34.6h8.4l-4.1-19.3h-0.1
				L228.1,34.6z"/>
			<path id="XMLID_57_" class="st0" d="M255.6,7.8l5.6,16.6h0.1l6-16.6h9.4l-11.1,26v16.9H257V33.9l-11.1-26H255.6z"/>
		</g>
		<g id="XMLID_41_">
			<path id="XMLID_53_" class="st0" d="M27.1,55h13.2l14,53H43.2l-2.4-11.2H26.6L24.2,108H13.1L27.1,55z M28.5,88h10.4l-5.1-23.8
				h-0.1L28.5,88z"/>
			<path id="XMLID_51_" class="st0" d="M76,55h15.8l7.6,37.4h0.1l7.6-37.4h15.8v53h-9.8V65.7H113l-9.4,42.3h-8.3l-9.4-42.3h-0.1V108
				H76V55z"/>
			<path id="XMLID_48_" class="st0" d="M140.8,55H154l14,53h-11.1l-2.4-11.2h-14.1l-2.4,11.2h-11.1L140.8,55z M142.2,88h10.4
				l-5.1-23.8h-0.1L142.2,88z"/>
			<path id="XMLID_46_" class="st0" d="M198.6,55v8.8H187V108h-10.7V63.7h-11.6V55H198.6z"/>
			<path id="XMLID_44_" class="st0" d="M225.8,72.9c0-7.7-1.6-11.1-6.4-11.1c-5.4,0-6.7,5.4-6.7,20.4c0,16,2.2,18.9,6.8,18.9
				c3.9,0,6.7-2,6.7-13.4h10.7c0,11.4-2.8,21.3-16.8,21.3c-16,0-18-11.4-18-27.5c0-16.1,2-27.5,18-27.5c15.3,0,16.4,11.2,16.4,18.9
				H225.8z"/>
			<path id="XMLID_42_" class="st0" d="M243,55h10.7v20.3h12.4V55h10.7v53h-10.7V84.4h-12.4V108H243V55z"/>
		</g>
	</g>
</g>
<g id="XMLID_144_">
</g>
<g id="XMLID_145_">
</g>
<g id="XMLID_146_">
</g>
<g id="XMLID_147_">
</g>
<g id="XMLID_148_">
</g>
<g id="XMLID_149_">
</g>
</svg>
