<?xml version="1.0" encoding="utf-8"?>
<!-- Generator: Adobe Illustrator 19.0.0, SVG Export Plug-In . SVG Version: 6.00 Build 0)  -->
<svg version="1.1" id="Layer_1" xmlns="http://www.w3.org/2000/svg" xmlns:xlink="http://www.w3.org/1999/xlink" x="0px" y="0px"
	 viewBox="-224 66.9 341.2 480.1" style="enable-background:new -224 66.9 341.2 480.1;" xml:space="preserve">
<style type="text/css">
	.st0{fill:#DA0E0D;}
</style>
<g>
	<path class="st0" d="M-139.8,512.4c-0.6-43.7-1.2-86.8-1.8-130.4c2.5,0,4.4,0,6.4,0c11.3,0.1,22.7,0.3,34,0.2
		c1.4,0,3.8-1.3,3.9-2.2c0.8-5.2,1.1-10.5,1.6-16.4c-10.6,0-20.6,0-30.9,0c0-34.8,0-69.1,0-103.5c-6.5,0-12.6,0-19.7,0
		c0,40.4,0,80.4,0,120.9c-7.1,0-13.6,0.1-20.1-0.1c-2.9-0.1-4.1,1-4.5,3.9c-1.3,10.1-2.8,20.1-4.2,30.2c-2.2,15.7-4.2,31.4-6.5,48.3
		c-4.5-27.9-8.8-54.7-13-81.3c-10,0-19.4,0-29.4,0c1,44.4,2,88.4,3,132.2c6.6,0,12.3,0,18.6,0c-1.1-35.6-2.2-70.6-3.4-105.7
		c5.3,33.6,10.1,67.2,14.9,100.8c0.3,2.1-0.1,4.5,3.3,4.4c4.8-0.1,9.6,0,14.5,0c4.3-34.4,8.5-68.2,12.7-102.1c0.3,0,0.7,0,1,0
		c0,33.7,0,67.4,0,100.8C-152.2,512.4-146.2,512.4-139.8,512.4z"/>
	<path class="st0" d="M58.8,458.4c-6.5,0-12.6,0-19,0c0-17.6,0-34.9,0-51.9c-6.8,0-13.1,0-19.4,0c0,43.5,0,86.4,0,129.3
		c6.6,0,12.9,0,19.6,0c0-19.3,0-38.2,0-57.3c6.4,0,12.3,0,19.1,0c0,19.6,0,38.5,0,57.4c6.7,0,12.8,0,18.9,0c0-43.3,0-86.4,0-129.4
		c-6.6,0-12.6,0-19.2,0C58.8,423.9,58.8,441,58.8,458.4z"/>
	<path class="st0" d="M72.8,266.2c-8.4,0-16.5-0.1-24.6,0.2c-1,0-2.7,2.1-2.9,3.4c-5.1,33.9-10,67.8-14.9,101.7
		c-1.4,9.5-2.8,19-4.2,29.1c5.6,0,10.5-0.3,15.5,0.1c3.9,0.3,5.1-1.2,5.4-5c0.7-8.9,1.9-17.8,3-27.1c5.1,0,9.7,0.2,14.3-0.1
		c3.3-0.2,4.3,1.2,4.6,4.2c0.8,8.1,1.8,16.2,3,24.3c0.2,1.3,1.9,3.4,2.9,3.4c5.9,0.3,11.9,0.2,18.3,0.2
		C86.3,355.6,79.6,311.3,72.8,266.2z M52.4,348.5c2.1-19.2,4.1-38.2,6.1-57.1c0.2,0,0.5-0.1,0.7-0.1c2.3,18.9,4.6,37.9,6.9,57.2
		C61.3,348.5,57,348.5,52.4,348.5z"/>
	<path class="st0" d="M-79.1,218.7c-6.4,44.7-12.9,89.1-19.3,133.9c6.7,0,13,0,19.9,0c1.4-10.8,2.7-21.3,4.1-31.7
		c6.1,0,11.6,0,17.5,0c1.5,10.5,3,21,4.5,31.7c7,0,13.8,0,20.8,0c-6.7-44.8-13.4-89.3-20.1-133.8C-61.2,218.7-70,218.7-79.1,218.7z
		 M-72.7,301c2.2-19,4.4-37.8,6.6-56.7c0.3,0,0.6,0,0.9,0c2.2,18.8,4.4,37.5,6.7,56.7C-63.5,301-67.8,301-72.7,301z"/>
	<path class="st0" d="M-84.2,461.4c-3-19.7-5.8-39.5-8.9-59.2c-0.2-1.6-1.7-4.2-2.7-4.2c-8.4-0.3-16.8-0.2-25.2-0.2
		c-6.4,44.9-12.7,89.2-19,133.7c7,0,13.4,0,20,0c1-9.4,1.9-18.5,3.1-27.6c0.2-1.4,1.9-3.7,3.1-3.8c5.1-0.4,10.2-0.2,15.6-0.2
		c1.1,9.5,2,18.4,3.3,27.3c0.2,1.7,1.9,4.3,3.1,4.4c5.8,0.5,11.6,0.2,17.9,0.2c-0.2-2.3-0.2-3.8-0.4-5.3
		C-77.5,504.8-80.9,483.1-84.2,461.4z M-110.3,480.4c-1.1,0-2.2-0.2-3.9-0.3c2.1-19.6,4.1-39,6.2-58.4c0.1,0,0.3,0,0.4,0.1
		c2.3,19.3,4.6,38.6,7.1,58.8C-104,480.4-107.1,480.4-110.3,480.4z"/>
	<path class="st0" d="M14.5,180c8.5,9.9,7.8,21.2,3.9,32.5c-0.8,2.2-4.5,4.2-7.2,4.9c-3.5,0.9-6.1-1.6-7.1-4.9
		c-0.9-2.8-1.2-5.8-1.3-8.8c-0.1-3.6,0.4-7.2,0.7-11.2c-6.7-0.7-13-1.4-20.3-2.2c0,8.3-0.8,15.9,0.2,23.2
		c1.8,13.8,11.9,21.7,27.9,22.9c12.3,1,23-5.8,26.8-18c6.7-21.7,5.5-42.1-11.9-59.2c-4.1-4.1-7.9-8.6-11.4-13.2
		c-6-7.9-6.1-16.8-2.3-25.5c0.9-2.1,4.6-4.5,6.8-4.3c2.1,0.2,4.6,3.2,5.7,5.5c1.1,2.2,0.8,5.2,0.8,7.8c0,2.8-0.3,5.5-0.4,8.8
		c6.7,0.5,12.9,1,19.8,1.6c0-6.3,0.4-11.9-0.1-17.5c-1.2-13.9-8.5-22-21.5-24.5C10.9,95.4,0.7,99.8-5,110.8
		c-6.7,12.9-9.5,38.2,6.4,54C6,169.7,10.2,174.9,14.5,180z"/>
	<path class="st0" d="M-184.7,361.7c-1.1-17.2-2.1-33.5-3.1-50.2c3.4-0.3,6.5-0.5,9.6-0.9c13.3-1.5,21.8-8.4,23.9-20.3
		c2.5-14.6,1.7-29.2-1.8-43.6c-2.1-8.6-7.6-15.1-16.2-17.5c-13.6-3.9-27.3,0-41.3,0.1c3.2,44.8,6.3,88.7,9.5,132.4
		C-197.5,361.7-191.6,361.7-184.7,361.7z M-174.2,256.1c1.3,7.5,1.7,15.2,1.6,22.8c-0.1,11.1-5.1,15-16.8,13.3
		c-1-14.9-2-29.9-3-44.8C-182.7,243.3-175.8,246.5-174.2,256.1z"/>
	<path class="st0" d="M-20.8,437.1c0.7-4.2,2.8-7.2,7.5-7.3c5,0,7,3.2,7.4,7.7c0.6,6.2,1,12.5,1.5,18.9c6.5,0,12.7,0,20.2,0
		c-1-9.1-1.1-18-3.2-26.4c-4.6-18.7-28.1-26-43.2-13.6c-8,6.6-10.2,15.9-10.3,25.6c-0.3,24.3-0.3,48.7,0,73c0,4.9,1.2,9.9,2.5,14.7
		c2.5,9.4,9.1,15.1,18.6,16.6c10.2,1.6,20.1,0.6,27.4-8c1.3-1.5,2.4-3.3,3.1-5.1c4.8-11.6,4.4-23.6,3.9-36.3c-5.2,0-10,0.2-14.8-0.1
		c-3.7-0.2-4.9,1-4.8,4.8c0.1,6.5-0.4,12.9-1,19.4c-0.3,3.8-2.9,6-6.5,6.5c-3.9,0.5-6.6-1.8-7.6-5.2c-1.1-3.9-1.9-8.1-1.9-12.2
		c-0.1-21.2,0-42.3,0.1-63.5C-21.8,443.4-21.3,440.2-20.8,437.1z"/>
	<path class="st0" d="M-99.4,253.4c1.4,0,3.8-1.3,4-2.2c0.8-5.6,1.1-11.4,1.6-17.5c-10.4,0-20.1,0-30,0c0-13.6,0-26.9,0-40.8
		c8.8,0,17.4,0,25.7,0c0-6.9,0-13.2,0-19.8c-8.9,0-17.3,0-25.7,0c0-11.7,0-22.9,0-34.5c9.3,0,18.2,0,27.6,0c0-6.9,0-13.1,0-19.4
		c-16.1,0-31.8,0-47.7,0c0,45,0,89.6,0,134.3C-128.7,253.5-114.1,253.6-99.4,253.4z"/>
	<path class="st0" d="M2.2,325.1c6.6-24.7,13.9-49.3,20.9-73.9c0.7-2.6,1.5-5.2,2.5-8.7c-6.4,0-11.7,0.1-17-0.1
		c-3.3-0.1-4.6,1.4-5.2,4.5c-2.3,11.2-4.9,22.4-7.4,33.6c-1.4,6.2-2.6,12.5-3.9,19c-3.4-18.2-6.6-36-10-53.8
		c-0.3-1.4-1.7-3.6-2.8-3.7c-6.3-0.3-12.6-0.2-19.4-0.2c0.3,1.8,0.5,3.1,0.8,4.4c4.5,18.6,8.6,37.3,13.8,55.7
		c5.7,19.8,7.7,39.7,5.7,60.2c-0.5,5.4-0.1,10.9-0.1,16.9c6.6,0,12.9,0,20.4,0c0-11.5-0.2-22.8,0.1-34.1
		C0.7,338.3,0.5,331.4,2.2,325.1z"/>
	<path class="st0" d="M-79.4,209.7c7.3,0,13.7,0,20,0c0-38.5,0-76.7,0-115.3c5.1,0,10.2,0.2,15.3-0.1c1.3-0.1,3.6-1.7,3.7-2.7
		c0.4-5.7,0.2-11.5,0.2-17.2c-20.2,0-39.4,0-58.7,0c0,7,0,13.4,0,20.3c6.4,0,12.5,0,19.5,0C-79.4,133.3-79.4,171.3-79.4,209.7z"/>
	<path class="st0" d="M-32,364.9c-19.5,0-38.7,0-57.7,0c0,6.8,0,13.2,0,19.8c6.3,0,12.1,0,18.9,0c0,37.6,0,74.6,0,111.9
		c7.1,0,13.5,0,20.1,0c0-37.4,0-74.5,0-112c6.3,0,12.4,0,18.7,0C-32,377.7-32,371.4-32,364.9z"/>
	<path class="st0" d="M-150.4,212.3c0-6.8,0-13.1,0-19.8c-10.2,0.7-20.1,1.3-30.4,2c-2.6-38.3-5.1-76-7.7-114.1
		c-6.7,0.5-12.8,1-19.7,1.5c2.9,44.7,5.8,88.9,8.7,133.5C-182.8,214.4-166.7,213.4-150.4,212.3z"/>
	<path class="st0" d="M-26,116.8c3.2,0.2,5-0.9,5.8-4c1.6-5.9,3.8-11.8,4.7-17.8c1.5-9.2,2.1-18.6,3.2-28.1c-7.1,0-12.8,0-18.2,0
		c-1.8,16.6-3.6,32.9-5.5,49.9C-33,116.8-29.5,116.6-26,116.8z"/>
	<g>
		<path class="st0" d="M105.5,497c3.9-30.1,7.8-59.9,11.7-89.7c-7.2-0.7-13.5-1.4-20.7-2.2c-2.4,30.4-4.7,60.2-7,90.2
			C95,495.9,100,496.4,105.5,497z"/>
		<path class="st0" d="M84,533.7c6.6,0.7,12.8,1.3,18.9,2c0.9-8.9,1.8-17.4,2.7-25.9c-6.5-0.7-12.6-1.3-18.9-2
			C85.7,516.8,84.8,525.3,84,533.7z"/>
	</g>
</g>
</svg>
