<?xml version="1.0" encoding="utf-8"?>
<!-- Generator: Adobe Illustrator 19.0.0, SVG Export Plug-In . SVG Version: 6.00 Build 0)  -->
<svg version="1.1" id="Layer_1" xmlns="http://www.w3.org/2000/svg" xmlns:xlink="http://www.w3.org/1999/xlink" x="0px" y="0px"
	 viewBox="-89 0 612 612" style="enable-background:new -89 0 612 612;" xml:space="preserve">
<style type="text/css">
	.st0{fill:#DA0E0D;}
	.st1{fill:#FFFFFF;stroke:#000000;stroke-width:2.1766;stroke-miterlimit:10;}
</style>
<g>
	<circle class="st0" cx="217" cy="306" r="306"/>
	<g>
		<g>
			<path d="M122.7,562.1c-2.8-52.5-5.6-104.2-8.4-156.4c3-0.1,5.3-0.2,7.7-0.3c13.6-0.4,27.2-0.8,40.8-1.4c1.6-0.1,4.5-1.7,4.6-2.8
				c0.8-6.3,0.8-12.6,1.1-19.8c-12.7,0.5-24.7,1-37.1,1.5c-1.6-41.8-3.3-82.9-5-124.2c-7.8,0.3-15.1,0.7-23.6,1
				c2,48.4,3.8,96.4,5.8,145.1c-8.5,0.3-16.3,0.8-24.2,0.9c-3.5,0-4.9,1.4-5.2,4.9c-1.1,12.2-2.4,24.3-3.6,36.5
				c-1.9,18.9-3.5,37.9-5.4,58.2c-6.7-33.3-13.2-65.2-19.5-97c-12,0.4-23.3,1-35.3,1.4c3.4,53.2,6.6,106,9.9,158.5
				c7.9-0.3,14.8-0.5,22.3-0.9c-3-42.7-6-84.6-9.1-126.7c7.9,40,15.3,80.2,22.7,120.3c0.4,2.5,0.1,5.4,4.1,5.1
				c5.8-0.3,11.5-0.4,17.4-0.7c3.5-41.5,7-82.3,10.3-123.1c0.3,0,0.9,0,1.2,0c1.6,40.5,3.3,80.9,4.8,120.9
				C107.9,562.7,115.1,562.3,122.7,562.1z"/>
			<path d="M358.4,487.8c-7.8,0.3-15.1,0.7-22.7,0.9c-0.9-21.1-1.6-41.9-2.5-62.3c-8.2,0.3-15.7,0.7-23.3,1
				c2.1,52.2,4.1,103.7,6.2,155.2c7.9-0.3,15.5-0.7,23.5-1c-1-23.2-1.9-45.8-2.7-68.8c7.7-0.3,14.8-0.5,23-0.9
				c1,23.5,1.9,46.3,2.7,68.9c8.1-0.3,15.3-0.7,22.6-0.9c-2.1-51.9-4.1-103.7-6.2-155.3c-7.9,0.3-15.1,0.7-23.1,0.9
				C356.8,446.3,357.7,466.9,358.4,487.8z"/>
			<path d="M366,256.4c-10.1,0.4-19.8,0.7-29.5,1.4c-1.2,0-3.2,2.6-3.3,4.2c-4.5,40.9-8.7,81.8-13,122.8c-1.2,11.4-2.4,23-3.6,35.2
				c6.7-0.2,12.6-0.9,18.6-0.7c4.7,0.2,6.1-1.6,6.2-6.3c0.4-10.7,1.4-21.4,2.3-32.6c6.1-0.2,11.6-0.2,17.2-0.8
				c3.9-0.4,5.2,1.2,5.8,4.8c1.3,9.7,2.9,19.4,4.8,29.1c0.3,1.5,2.4,4,3.6,3.9c7.1,0.1,14.3-0.3,22-0.7
				C386.5,363.1,376.4,310.2,366,256.4z M345.5,356.2c1.6-23.2,3-46,4.6-68.8c0.2,0,0.5-0.1,0.9-0.1c3.7,22.5,7.3,45.3,11,68.3
				C356.1,355.8,351,356,345.5,356.2z"/>
			<path d="M181.5,206.7c-5.6,54-11.2,107.5-16.8,161.6c8.1-0.3,15.6-0.7,23.8-1c1.2-13.1,2.2-25.7,3.4-38.2
				c7.3-0.3,13.9-0.5,21-0.9c2.3,12.5,4.6,25,7,37.9c8.4-0.3,16.5-0.7,24.9-1c-10.2-53.4-20.4-106.5-30.6-159.5
				C203,205.9,192.3,206.3,181.5,206.7z M193.1,305.2c1.7-22.9,3.5-45.6,5.2-68.3c0.3,0,0.8,0,1.1,0c3.6,22.4,7.1,44.8,10.8,67.7
				C204.1,304.7,199,305,193.1,305.2z"/>
			<path d="M187,498.2c-4.6-23.5-8.8-47.1-13.5-70.6c-0.3-2-2.3-5-3.5-4.9c-10.1,0-20.1,0.5-30.3,1c-5.6,54.2-11,107.6-16.4,161.4
				c8.4-0.3,16.1-0.7,24.1-1c0.8-11.3,1.4-22.3,2.4-33.3c0.2-1.7,2.1-4.6,3.6-4.7c6.1-0.8,12.2-0.8,18.7-1c1.7,11.3,3.3,22,5.2,32.6
				c0.3,2.1,2.5,5.1,3.9,5.1c7,0.3,13.9-0.3,21.4-0.7c-0.3-2.7-0.4-4.6-0.8-6.3C197.1,549.9,192,524,187,498.2z M156.5,522.3
				c-1.3,0-2.6-0.1-4.7-0.2c1.6-23.6,3-47,4.7-70.4c0.1,0,0.3,0,0.4,0.1c3.7,23.1,7.4,46.1,11.3,70.2
				C164.2,522,160.5,522.1,156.5,522.3z"/>
			<path d="M291.9,155.8c10.7,11.4,10.3,25,6.2,38.9c-0.9,2.7-5.2,5.2-8.4,6.2c-4.1,1.2-7.4-1.6-8.7-5.6c-1.2-3.3-1.7-6.9-2-10.4
				c-0.3-4.4,0.1-8.7,0.3-13.5c-8.1-0.5-15.7-1.1-24.5-1.6c0.4,10-0.2,19.2,1.3,27.9c2.8,16.4,15.3,25.5,34.6,26.1
				c14.8,0.7,27.3-8.1,31.3-22.9c7-26.3,4.6-50.8-17.1-70.4c-5.1-4.7-9.9-9.9-14.4-15.3c-7.6-9.1-8.2-19.9-4-30.5
				c1-2.6,5.3-5.7,7.9-5.4c2.5,0.1,5.7,3.6,7.1,6.3c1.4,2.6,1.2,6.2,1.3,9.4c0.1,3.4-0.1,6.6-0.1,10.6c8.1,0.3,15.6,0.5,23.8,1
				c-0.3-7.5-0.1-14.3-1-21c-2-16.8-11.1-26.1-26.9-28.5c-15.3-2.4-27.3,3.4-33.6,16.9c-7.4,15.8-9.6,46.3,10.2,64.5
				C281.3,143.9,286.5,149.9,291.9,155.8z"/>
			<path d="M61.6,383.4c-2.2-20.6-4.1-40-6.1-60.1c4-0.5,7.7-0.9,11.4-1.5c15.9-2.4,25.8-11.1,27.8-25.5c2.3-17.6,0.7-35.2-4.2-52.2
				c-2.9-10.2-9.8-17.7-20.2-20.2c-16.5-4-32.8,1.3-49.5,2.1c6,53.7,11.9,106.1,17.7,158.5C46.3,384,53.4,383.8,61.6,383.4z
				 M69.2,256.2c2,8.9,2.7,18.2,3,27.3c0.4,13.3-5.4,18.3-19.5,16.8c-2-17.8-3.8-35.8-5.8-53.7C58.4,241.2,66.8,244.8,69.2,256.2z"
				/>
			<path d="M261.9,466c0.7-5.1,3-8.8,8.6-9.1c6-0.2,8.6,3.5,9.3,8.9c1,7.4,1.9,14.9,2.7,22.6c7.8-0.3,15.2-0.7,24.3-1
				c-1.6-10.9-2.2-21.5-5.1-31.6c-6.4-22.2-34.9-29.8-52.5-14.3c-9.3,8.3-11.4,19.6-11.1,31.2c0.8,29.2,2,58.4,3.5,87.6
				c0.2,5.9,2,11.9,3.7,17.5c3.5,11.2,11.6,17.6,23.1,19c12.3,1.4,24.2-0.2,32.5-10.9c1.5-1.9,2.7-4,3.5-6.3
				c5.2-14.1,4.1-28.5,2.9-43.7c-6.2,0.2-12,0.8-17.7,0.5c-4.5-0.1-5.9,1.4-5.6,6c0.4,7.8,0.1,15.5-0.2,23.3
				c-0.2,4.6-3.2,7.3-7.5,8.2c-4.7,0.8-8.1-1.9-9.4-5.9c-1.5-4.7-2.7-9.6-2.8-14.6c-1.1-25.5-2.1-50.7-2.9-76.2
				C261,473.7,261.5,469.7,261.9,466z"/>
			<path d="M158.8,249.4c1.6-0.1,4.5-1.7,4.7-2.8c0.7-6.7,0.8-13.7,1.1-21.1c-12.5,0.5-24.2,1-36,1.4c-0.7-16.3-1.3-32.3-2-49
				c10.6-0.4,20.9-0.9,30.8-1.2c-0.3-8.3-0.7-15.9-1-23.7c-10.7,0.4-20.8,0.9-30.8,1.2c-0.5-14-1.1-27.4-1.6-41.4
				c11.2-0.4,21.9-0.9,33.1-1.3c-0.3-8.3-0.7-15.7-1-23.3c-19.4,0.8-38.2,1.5-57.2,2.3c2.2,54,4.2,107.5,6.4,161.2
				C123.7,250.9,141.2,250.3,158.8,249.4z"/>
			<path d="M284.1,330.5c6.7-29.9,14.4-59.9,21.5-89.7c0.8-3.2,1.5-6.3,2.6-10.6c-7.7,0.3-14,0.7-20.4,0.7c-3.9,0-5.4,1.9-6,5.7
				c-2.2,13.6-4.8,27.1-7.3,40.7c-1.4,7.5-2.5,15.1-3.8,23c-5-21.7-9.7-42.9-14.6-64.1c-0.4-1.6-2.2-4.2-3.6-4.4
				c-7.6-0.1-15.1,0.3-23.3,0.7c0.4,2.2,0.8,3.7,1.2,5.2c6.3,22.1,12.1,44.3,19.3,66.2c7.8,23.5,11.1,47.2,9.7,71.9
				c-0.3,6.5,0.4,13.1,0.7,20.2c7.9-0.3,15.5-0.7,24.5-1c-0.5-13.8-1.3-27.3-1.5-40.9C283,346.4,282.5,338.2,284.1,330.5z"/>
			<path d="M180.7,195.9c8.7-0.3,16.4-0.7,24.1-1c-1.9-46.3-3.7-92.1-5.6-138.3c6.1-0.2,12.3-0.2,18.4-0.9c1.5-0.2,4.2-2.2,4.4-3.4
				c0.2-6.9-0.3-13.8-0.5-20.7c-24.3,1-47.2,1.9-70.4,2.8c0.3,8.4,0.7,16.1,1,24.4c7.7-0.3,15-0.7,23.4-1
				C177,104.3,178.9,149.9,180.7,195.9z"/>
			<path d="M245,380c-23.4,1-46.5,1.9-69.2,2.7c0.3,8.2,0.7,15.9,1,23.7c7.5-0.3,14.5-0.5,22.6-0.9c1.9,45.2,3.6,89.6,5.3,134.3
				c8.5-0.3,16.2-0.7,24.2-1c-1.7-44.8-3.6-89.3-5.3-134.4c7.5-0.3,14.9-0.5,22.4-0.9C245.7,395.3,245.4,387.7,245,380z"/>
			<path d="M95.6,202.4c-0.3-8.2-0.7-15.7-1-23.7c-12.2,1.3-24.1,2.5-36.3,3.8c-5-45.8-9.8-91-14.7-136.6
				c-8.1,0.9-15.3,1.9-23.6,2.7c5.7,53.5,11.2,106.4,16.9,159.8C56.9,206.6,76.1,204.6,95.6,202.4z"/>
			<path d="M240.3,81.9c3.8,0.1,6-1.3,6.7-5.1c1.6-7.2,4-14.4,4.8-21.5c1.3-11.1,1.6-22.4,2.5-33.8c-8.5,0.3-15.3,0.7-21.9,0.9
				c-1.4,20-2.7,39.6-4.2,60.2C232,82.3,236.1,81.9,240.3,81.9z"/>
			<g>
				<path d="M416.3,531.9c3.3-36.3,6.5-72.3,9.7-108.2c-8.7-0.5-16.2-1-24.9-1.6c-1.4,36.6-2.7,72.5-4,108.6
					C403.7,531,409.7,531.3,416.3,531.9z"/>
				<path d="M392.3,576.9c7.9,0.5,15.5,1,22.7,1.5c0.7-10.8,1.3-21,2-31.2c-7.8-0.5-15.2-1-22.7-1.5
					C393.6,556.6,392.8,566.8,392.3,576.9z"/>
			</g>
		</g>
		<g>
			<path class="st1" d="M115.3,555.2c-2.8-52.5-5.6-104.2-8.4-156.4c3-0.1,5.3-0.2,7.7-0.3c13.6-0.4,27.2-0.8,40.8-1.4
				c1.6-0.1,4.5-1.7,4.6-2.8c0.8-6.3,0.8-12.6,1.1-19.8c-12.7,0.5-24.7,1-37.1,1.5c-1.6-41.8-3.3-82.9-5-124.2
				c-7.8,0.3-15.1,0.7-23.6,1c2,48.4,3.8,96.4,5.8,145.1c-8.5,0.3-16.3,0.8-24.2,0.9c-3.5,0-4.9,1.4-5.2,4.9
				c-1.1,12.2-2.4,24.3-3.6,36.5c-1.9,18.9-3.5,37.9-5.4,58.2c-6.7-33.3-13.2-65.2-19.5-97c-12,0.4-23.3,1-35.3,1.4
				c3.4,53.2,6.6,106,9.9,158.5c7.9-0.3,14.8-0.5,22.3-0.9c-3-42.7-6-84.6-9.1-126.7c7.9,40,15.3,80.2,22.7,120.3
				c0.4,2.5,0.1,5.4,4.1,5.1c5.8-0.3,11.5-0.4,17.4-0.7c3.5-41.5,7-82.3,10.3-123.1c0.3,0,0.9,0,1.2,0c1.6,40.5,3.3,80.9,4.8,120.9
				C100.4,555.7,107.6,555.5,115.3,555.2z"/>
			<path class="st1" d="M351,480.8c-7.8,0.3-15.1,0.7-22.7,0.9c-0.9-21.1-1.6-41.9-2.5-62.3c-8.2,0.3-15.7,0.7-23.3,1
				c2.1,52.2,4.1,103.7,6.2,155.2c7.9-0.3,15.5-0.7,23.5-1c-1-23.2-1.9-45.8-2.7-68.8c7.7-0.3,14.8-0.5,23-0.9
				c1,23.5,1.9,46.3,2.7,68.9c8.1-0.3,15.3-0.7,22.6-0.9c-2.1-51.9-4.1-103.7-6.2-155.3c-7.9,0.3-15.1,0.7-23.1,0.9
				C349.3,439.5,350.2,459.9,351,480.8z"/>
			<path class="st1" d="M358.5,249.6c-10.1,0.4-19.8,0.7-29.5,1.4c-1.2,0-3.2,2.6-3.3,4.2c-4.5,40.9-8.7,81.8-13,122.8
				c-1.2,11.4-2.4,23-3.6,35.2c6.7-0.2,12.6-0.9,18.6-0.7c4.7,0.2,6.1-1.6,6.2-6.3c0.4-10.7,1.4-21.4,2.3-32.6
				c6.1-0.2,11.6-0.2,17.2-0.8c3.9-0.4,5.2,1.2,5.8,4.8c1.3,9.7,2.9,19.4,4.8,29.1c0.3,1.5,2.4,4,3.6,3.9c7.1,0.1,14.3-0.3,22-0.7
				C379,356.1,368.9,303.3,358.5,249.6z M338,349.3c1.6-23.2,3-46,4.6-68.8c0.2,0,0.5-0.1,0.9-0.1c3.7,22.5,7.3,45.3,11,68.3
				C348.7,348.8,343.5,349,338,349.3z"/>
			<path class="st1" d="M174,199.8c-5.6,54-11.2,107.5-16.8,161.6c8.1-0.3,15.6-0.7,23.8-1c1.2-13.1,2.2-25.7,3.4-38.2
				c7.3-0.3,13.9-0.5,21-0.9c2.3,12.5,4.6,25,7,37.9c8.4-0.3,16.5-0.7,24.9-1c-10.2-53.4-20.4-106.5-30.6-159.5
				C195.5,199,184.9,199.4,174,199.8z M185.6,298.3c1.7-22.9,3.5-45.6,5.2-68.3c0.3,0,0.8,0,1.1,0c3.6,22.4,7.1,44.8,10.8,67.7
				C196.7,297.8,191.5,298,185.6,298.3z"/>
			<path class="st1" d="M179.5,491.3c-4.6-23.5-8.8-47.1-13.5-70.6c-0.3-2-2.3-5-3.5-4.9c-10.1,0-20.1,0.5-30.3,1
				c-5.6,54.2-11,107.6-16.4,161.4c8.4-0.3,16.1-0.7,24.1-1c0.8-11.3,1.4-22.3,2.4-33.3c0.2-1.7,2.1-4.6,3.6-4.7
				c6.1-0.8,12.2-0.8,18.7-1c1.7,11.3,3.3,22,5.2,32.6c0.3,2.1,2.5,5.1,3.9,5.1c7,0.3,13.9-0.3,21.4-0.7c-0.3-2.7-0.4-4.6-0.8-6.3
				C189.6,543.1,184.5,517.2,179.5,491.3z M149.1,515.3c-1.3,0-2.6-0.1-4.7-0.2c1.6-23.6,3-47,4.7-70.4c0.1,0,0.3,0,0.4,0.1
				c3.7,23.1,7.4,46.1,11.3,70.2C156.7,515,153,515.2,149.1,515.3z"/>
			<path class="st1" d="M284.4,148.9c10.7,11.4,10.3,25,6.2,38.9c-0.9,2.7-5.2,5.2-8.4,6.2c-4.1,1.2-7.4-1.6-8.7-5.6
				c-1.2-3.3-1.7-6.9-2-10.4c-0.3-4.4,0.1-8.7,0.3-13.5c-8.1-0.5-15.7-1.1-24.5-1.6c0.4,10-0.2,19.2,1.3,27.9
				c2.8,16.4,15.3,25.5,34.6,26.1c14.8,0.7,27.3-8.1,31.3-22.9c7-26.3,4.6-50.8-17.1-70.4c-5.1-4.7-9.9-9.9-14.4-15.3
				c-7.6-9.1-8.2-19.9-4-30.5c1-2.6,5.3-5.7,7.9-5.4c2.5,0.1,5.7,3.6,7.1,6.3c1.4,2.6,1.2,6.2,1.3,9.4c0.1,3.4-0.1,6.6-0.1,10.6
				c8.1,0.3,15.6,0.5,23.8,1c-0.3-7.5-0.1-14.3-1-21c-2-16.8-11.1-26.2-26.9-28.5c-15.3-2.4-27.4,3.4-33.7,16.9
				c-7.4,15.8-9.6,46.3,10.2,64.5C273.8,136.9,279.1,143,284.4,148.9z"/>
			<path class="st1" d="M54.1,376.5c-2.2-20.6-4.1-40-6.1-60.1c4-0.5,7.7-0.9,11.4-1.5c15.9-2.4,25.8-11.1,27.8-25.5
				c2.3-17.6,0.7-35.2-4.2-52.2c-2.9-10.2-9.8-17.7-20.2-20.2c-16.5-4-32.8,1.3-49.5,2.1c6,53.7,11.9,106.1,17.7,158.5
				C38.8,377.1,45.9,376.8,54.1,376.5z M61.6,249.2c2,8.9,2.7,18.2,3,27.3c0.4,13.3-5.4,18.3-19.5,16.8c-2-17.8-3.8-35.8-5.8-53.7
				C50.9,234.3,59.3,237.8,61.6,249.2z"/>
			<path class="st1" d="M254.4,459.1c0.7-5.1,3-8.8,8.6-9.1c6-0.2,8.6,3.5,9.3,8.9c1,7.4,1.9,14.9,2.7,22.6c7.8-0.3,15.2-0.7,24.3-1
				c-1.6-10.9-2.2-21.5-5.1-31.6c-6.4-22.2-34.9-29.8-52.5-14.3c-9.3,8.3-11.4,19.6-11.1,31.2c0.8,29.2,2,58.4,3.5,87.6
				c0.2,5.9,2,11.9,3.7,17.5c3.5,11.2,11.6,17.6,23.1,19c12.3,1.4,24.2-0.2,32.5-10.9c1.5-1.9,2.7-4,3.5-6.3
				c5.2-14.1,4.1-28.5,2.9-43.7c-6.2,0.2-12,0.8-17.7,0.5c-4.5-0.1-5.9,1.4-5.6,6c0.4,7.8,0.1,15.5-0.2,23.3
				c-0.2,4.6-3.2,7.3-7.5,8.2c-4.7,0.8-8.1-1.9-9.4-5.9c-1.5-4.7-2.7-9.6-2.8-14.6c-1.1-25.5-2.1-50.7-2.9-76.2
				C253.5,466.7,253.9,462.9,254.4,459.1z"/>
			<path class="st1" d="M151.3,242.4c1.6-0.1,4.5-1.7,4.7-2.8c0.7-6.7,0.8-13.7,1.1-21.1c-12.5,0.5-24.2,1-36,1.4
				c-0.7-16.3-1.3-32.3-2-49c10.6-0.4,20.9-0.9,30.8-1.2c-0.3-8.3-0.7-15.9-1-23.7c-10.7,0.4-20.8,0.9-30.8,1.2
				c-0.5-14-1.1-27.4-1.6-41.4c11.2-0.4,21.9-0.9,33.1-1.3c-0.3-8.3-0.7-15.7-1-23.3c-19.4,0.8-38.2,1.5-57.2,2.3
				c2.2,54,4.2,107.5,6.4,161.2C116.2,243.9,133.7,243.4,151.3,242.4z"/>
			<path class="st1" d="M276.7,323.6c6.7-29.9,14.4-59.9,21.5-89.7c0.8-3.2,1.5-6.3,2.6-10.6c-7.7,0.3-14,0.7-20.4,0.7
				c-3.9,0-5.4,1.9-6,5.7c-2.2,13.6-4.8,27.1-7.3,40.7c-1.4,7.5-2.5,15.1-3.8,23c-5-21.7-9.7-42.9-14.6-64.1
				c-0.4-1.6-2.2-4.2-3.6-4.4c-7.6-0.1-15.1,0.3-23.3,0.7c0.4,2.2,0.8,3.7,1.2,5.2c6.3,22.1,12.1,44.3,19.3,66.2
				c7.8,23.5,11.1,47.2,9.7,71.9c-0.3,6.5,0.4,13.1,0.7,20.2c7.9-0.3,15.5-0.7,24.5-1c-0.5-13.8-1.3-27.3-1.5-40.9
				C275.5,339.5,275,331.2,276.7,323.6z"/>
			<path class="st1" d="M173.2,189.1c8.7-0.3,16.4-0.7,24.1-1c-1.9-46.3-3.7-92.1-5.6-138.3c6.1-0.2,12.3-0.2,18.4-0.9
				c1.5-0.2,4.2-2.2,4.4-3.4c0.2-6.9-0.3-13.8-0.5-20.7c-24.3,1-47.2,1.9-70.4,2.8c0.3,8.4,0.7,16.1,1,24.4c7.7-0.3,15-0.7,23.4-1
				C169.5,97.3,171.3,142.9,173.2,189.1z"/>
			<path class="st1" d="M237.5,373c-23.4,1-46.5,1.9-69.2,2.7c0.3,8.2,0.7,15.9,1,23.7c7.5-0.3,14.5-0.5,22.6-0.9
				c1.9,45.2,3.6,89.6,5.3,134.3c8.5-0.3,16.2-0.7,24.2-1c-1.7-44.8-3.6-89.3-5.3-134.4c7.5-0.3,14.9-0.5,22.4-0.9
				C238.2,388.3,237.8,380.8,237.5,373z"/>
			<path class="st1" d="M88.1,195.6c-0.3-8.2-0.7-15.7-1-23.7c-12.2,1.3-24.1,2.5-36.3,3.8c-5-45.8-9.8-91-14.7-136.6
				C28,40,20.7,40.9,12.5,41.8c5.7,53.5,11.2,106.4,16.9,159.8C49.3,199.6,68.6,197.7,88.1,195.6z"/>
			<path class="st1" d="M232.8,75c3.8,0.1,6-1.3,6.7-5.1c1.6-7.2,4-14.4,4.8-21.5c1.3-11.1,1.6-22.4,2.5-33.8
				c-8.5,0.3-15.3,0.7-21.9,0.9c-1.4,20-2.7,39.6-4.2,60.2C224.5,75.3,228.6,74.9,232.8,75z"/>
			<g>
				<path class="st1" d="M408.8,524.9c3.3-36.3,6.5-72.3,9.7-108.2c-8.7-0.5-16.2-1-24.9-1.6c-1.4,36.6-2.7,72.5-4,108.6
					C396.2,524.2,402.3,524.5,408.8,524.9z"/>
				<path class="st1" d="M384.9,570c7.9,0.5,15.5,1,22.7,1.5c0.7-10.8,1.3-21,2-31.2c-7.8-0.5-15.2-1-22.7-1.5
					C386.1,549.6,385.4,559.8,384.9,570z"/>
			</g>
		</g>
	</g>
</g>
</svg>
