<?xml version="1.0" encoding="utf-8"?>
<!-- Generator: Adobe Illustrator 19.0.0, SVG Export Plug-In . SVG Version: 6.00 Build 0)  -->
<svg version="1.1" id="Layer_1" xmlns="http://www.w3.org/2000/svg" xmlns:xlink="http://www.w3.org/1999/xlink" x="0px" y="0px"
	 viewBox="0 0 341.2 480.1" style="enable-background:new 0 0 341.2 480.1;" xml:space="preserve">
<g>
	<path d="M84.2,445.5c-0.6-43.7-1.2-86.8-1.8-130.4c2.5,0,4.4,0,6.4,0c11.3,0.1,22.7,0.3,34,0.2c1.4,0,3.8-1.3,3.9-2.2
		c0.8-5.2,1.1-10.5,1.6-16.4c-10.6,0-20.6,0-30.9,0c0-34.8,0-69.1,0-103.5c-6.5,0-12.6,0-19.7,0c0,40.4,0,80.4,0,120.9
		c-7.1,0-13.6,0.1-20.1-0.1c-2.9-0.1-4.1,1-4.5,3.9c-1.3,10.1-2.8,20.1-4.2,30.2c-2.2,15.7-4.2,31.4-6.5,48.3
		c-4.5-27.9-8.8-54.7-13-81.3c-10,0-19.4,0-29.4,0c1,44.4,2,88.4,3,132.2c6.6,0,12.3,0,18.6,0c-1.1-35.6-2.2-70.6-3.4-105.7
		c5.3,33.6,10.1,67.2,14.9,100.8c0.3,2.1-0.1,4.5,3.3,4.4c4.8-0.1,9.6,0,14.5,0c4.3-34.4,8.5-68.2,12.7-102.1c0.3,0,0.7,0,1,0
		c0,33.7,0,67.4,0,100.8C71.8,445.5,77.8,445.5,84.2,445.5z"/>
	<path d="M282.8,391.5c-6.5,0-12.6,0-19,0c0-17.6,0-34.9,0-51.9c-6.8,0-13.1,0-19.4,0c0,43.5,0,86.4,0,129.3c6.6,0,12.9,0,19.6,0
		c0-19.3,0-38.2,0-57.3c6.4,0,12.3,0,19.1,0c0,19.6,0,38.5,0,57.4c6.7,0,12.8,0,18.9,0c0-43.3,0-86.4,0-129.4c-6.6,0-12.6,0-19.2,0
		C282.8,357,282.8,374.1,282.8,391.5z"/>
	<path d="M296.8,199.3c-8.4,0-16.5-0.1-24.6,0.2c-1,0-2.7,2.1-2.9,3.4c-5.1,33.9-10,67.8-14.9,101.7c-1.4,9.5-2.8,19-4.2,29.1
		c5.6,0,10.5-0.3,15.5,0.1c3.9,0.3,5.1-1.2,5.4-5c0.7-8.9,1.9-17.8,3-27.1c5.1,0,9.7,0.2,14.3-0.1c3.3-0.2,4.3,1.2,4.6,4.2
		c0.8,8.1,1.8,16.2,3,24.3c0.2,1.3,1.9,3.4,2.9,3.4c5.9,0.3,11.9,0.2,18.3,0.2C310.3,288.7,303.6,244.4,296.8,199.3z M276.4,281.6
		c2.1-19.2,4.1-38.2,6.1-57.1c0.2,0,0.5-0.1,0.7-0.1c2.3,18.9,4.6,37.9,6.9,57.2C285.3,281.6,281,281.6,276.4,281.6z"/>
	<path d="M144.9,151.8c-6.4,44.7-12.9,89.1-19.3,133.9c6.7,0,13,0,19.9,0c1.4-10.8,2.7-21.3,4.1-31.7c6.1,0,11.6,0,17.5,0
		c1.5,10.5,3,21,4.5,31.7c7,0,13.8,0,20.8,0c-6.7-44.8-13.4-89.3-20.1-133.8C162.8,151.8,154,151.8,144.9,151.8z M151.3,234.1
		c2.2-19,4.4-37.8,6.6-56.7c0.3,0,0.6,0,0.9,0c2.2,18.8,4.4,37.5,6.7,56.7C160.5,234.1,156.2,234.1,151.3,234.1z"/>
	<path d="M139.8,394.5c-3-19.7-5.8-39.5-8.9-59.2c-0.2-1.6-1.7-4.2-2.7-4.2c-8.4-0.3-16.8-0.2-25.2-0.2
		c-6.4,44.9-12.7,89.2-19,133.7c7,0,13.4,0,20,0c1-9.4,1.9-18.5,3.1-27.6c0.2-1.4,1.9-3.7,3.1-3.8c5.1-0.4,10.2-0.2,15.6-0.2
		c1.1,9.5,2,18.4,3.3,27.3c0.2,1.7,1.9,4.3,3.1,4.4c5.8,0.5,11.6,0.2,17.9,0.2c-0.2-2.3-0.2-3.8-0.4-5.3
		C146.5,437.9,143.1,416.2,139.8,394.5z M113.7,413.5c-1.1,0-2.2-0.2-3.9-0.3c2.1-19.6,4.1-39,6.2-58.4c0.1,0,0.3,0,0.4,0.1
		c2.3,19.3,4.6,38.6,7.1,58.8C120,413.5,116.9,413.5,113.7,413.5z"/>
	<path d="M238.5,113.1c8.5,9.9,7.8,21.2,3.9,32.5c-0.8,2.2-4.5,4.2-7.2,4.9c-3.5,0.9-6.1-1.6-7.1-4.9c-0.9-2.8-1.2-5.8-1.3-8.8
		c-0.1-3.6,0.4-7.2,0.7-11.2c-6.7-0.7-13-1.4-20.3-2.2c0,8.3-0.8,15.9,0.2,23.2c1.8,13.8,11.9,21.7,27.9,22.9c12.3,1,23-5.8,26.8-18
		c6.7-21.7,5.5-42.1-11.9-59.2c-4.1-4.1-7.9-8.6-11.4-13.2c-6-7.9-6.1-16.8-2.3-25.5c0.9-2.1,4.6-4.5,6.8-4.3
		c2.1,0.2,4.6,3.2,5.7,5.5c1.1,2.2,0.8,5.2,0.8,7.8c0,2.8-0.3,5.5-0.4,8.8c6.7,0.5,12.9,1,19.8,1.6c0-6.3,0.4-11.9-0.1-17.5
		c-1.2-13.9-8.5-22-21.5-24.5c-12.7-2.5-22.9,1.9-28.6,12.9c-6.7,12.9-9.5,38.2,6.4,54C230,102.8,234.2,108,238.5,113.1z"/>
	<path d="M39.3,294.8c-1.1-17.2-2.1-33.5-3.1-50.2c3.4-0.3,6.5-0.5,9.6-0.9c13.3-1.5,21.8-8.4,23.9-20.3c2.5-14.6,1.7-29.2-1.8-43.6
		c-2.1-8.6-7.6-15.1-16.2-17.5c-13.6-3.9-27.3,0-41.3,0.1c3.2,44.8,6.3,88.7,9.5,132.4C26.5,294.8,32.4,294.8,39.3,294.8z
		 M49.8,189.2c1.3,7.5,1.7,15.2,1.6,22.8c-0.1,11.1-5.1,15-16.8,13.3c-1-14.9-2-29.9-3-44.8C41.3,176.4,48.2,179.6,49.8,189.2z"/>
	<path d="M203.2,370.2c0.7-4.2,2.8-7.2,7.5-7.3c5,0,7,3.2,7.4,7.7c0.6,6.2,1,12.5,1.5,18.9c6.5,0,12.7,0,20.2,0
		c-1-9.1-1.1-18-3.2-26.4c-4.6-18.7-28.1-26-43.2-13.6c-8,6.6-10.2,15.9-10.3,25.6c-0.3,24.3-0.3,48.7,0,73c0,4.9,1.2,9.9,2.5,14.7
		c2.5,9.4,9.1,15.1,18.6,16.6c10.2,1.6,20.1,0.6,27.4-8c1.3-1.5,2.4-3.3,3.1-5.1c4.8-11.6,4.4-23.6,3.9-36.3c-5.2,0-10,0.2-14.8-0.1
		c-3.7-0.2-4.9,1-4.8,4.8c0.1,6.5-0.4,12.9-1,19.4c-0.3,3.8-2.9,6-6.5,6.5c-3.9,0.5-6.6-1.8-7.6-5.2c-1.1-3.9-1.9-8.1-1.9-12.2
		c-0.1-21.2,0-42.3,0.1-63.5C202.2,376.5,202.7,373.3,203.2,370.2z"/>
	<path d="M124.6,186.5c1.4,0,3.8-1.3,4-2.2c0.8-5.6,1.1-11.4,1.6-17.5c-10.4,0-20.1,0-30,0c0-13.6,0-26.9,0-40.8
		c8.8,0,17.4,0,25.7,0c0-6.9,0-13.2,0-19.8c-8.9,0-17.3,0-25.7,0c0-11.7,0-22.9,0-34.5c9.3,0,18.2,0,27.6,0c0-6.9,0-13.1,0-19.4
		c-16.1,0-31.8,0-47.7,0c0,45,0,89.6,0,134.3C95.3,186.6,109.9,186.7,124.6,186.5z"/>
	<path d="M226.2,258.2c6.6-24.7,13.9-49.3,20.9-73.9c0.7-2.6,1.5-5.2,2.5-8.7c-6.4,0-11.7,0.1-17-0.1c-3.3-0.1-4.6,1.4-5.2,4.5
		c-2.3,11.2-4.9,22.4-7.4,33.6c-1.4,6.2-2.6,12.5-3.9,19c-3.4-18.2-6.6-36-10-53.8c-0.3-1.4-1.7-3.6-2.8-3.7
		c-6.3-0.3-12.6-0.2-19.4-0.2c0.3,1.8,0.5,3.1,0.8,4.4c4.5,18.6,8.6,37.3,13.8,55.7c5.7,19.8,7.7,39.7,5.7,60.2
		c-0.5,5.4-0.1,10.9-0.1,16.9c6.6,0,12.9,0,20.4,0c0-11.5-0.2-22.8,0.1-34.1C224.7,271.4,224.5,264.5,226.2,258.2z"/>
	<path d="M144.6,142.8c7.3,0,13.7,0,20,0c0-38.5,0-76.7,0-115.3c5.1,0,10.2,0.2,15.3-0.1c1.3-0.1,3.6-1.7,3.7-2.7
		c0.4-5.7,0.2-11.5,0.2-17.2c-20.2,0-39.4,0-58.7,0c0,7,0,13.4,0,20.3c6.4,0,12.5,0,19.5,0C144.6,66.4,144.6,104.4,144.6,142.8z"/>
	<path d="M192,298c-19.5,0-38.7,0-57.7,0c0,6.8,0,13.2,0,19.8c6.3,0,12.1,0,18.9,0c0,37.6,0,74.6,0,111.9c7.1,0,13.5,0,20.1,0
		c0-37.4,0-74.5,0-112c6.3,0,12.4,0,18.7,0C192,310.8,192,304.5,192,298z"/>
	<path d="M73.6,145.4c0-6.8,0-13.1,0-19.8c-10.2,0.7-20.1,1.3-30.4,2c-2.6-38.3-5.1-76-7.7-114.1c-6.7,0.5-12.8,1-19.7,1.5
		c2.9,44.7,5.8,88.9,8.7,133.5C41.2,147.5,57.3,146.5,73.6,145.4z"/>
	<path d="M198,49.9c3.2,0.2,5-0.9,5.8-4c1.6-5.9,3.8-11.8,4.7-17.8c1.5-9.2,2.1-18.6,3.2-28.1c-7.1,0-12.8,0-18.2,0
		c-1.8,16.6-3.6,32.9-5.5,49.9C191,49.9,194.5,49.7,198,49.9z"/>
	<g>
		<path d="M329.5,430.1c3.9-30.1,7.8-59.9,11.7-89.7c-7.2-0.7-13.5-1.4-20.7-2.2c-2.4,30.4-4.7,60.2-7,90.2
			C319,429,324,429.5,329.5,430.1z"/>
		<path d="M308,466.8c6.6,0.7,12.8,1.3,18.9,2c0.9-8.9,1.8-17.4,2.7-25.9c-6.5-0.7-12.6-1.3-18.9-2
			C309.7,449.9,308.8,458.4,308,466.8z"/>
	</g>
</g>
</svg>
