<?xml version="1.0" encoding="utf-8"?>
<!-- Generator: Adobe Illustrator 19.0.0, SVG Export Plug-In . SVG Version: 6.00 Build 0)  -->
<svg version="1.1" id="Layer_1" xmlns="http://www.w3.org/2000/svg" xmlns:xlink="http://www.w3.org/1999/xlink" x="0px" y="0px"
	 viewBox="-358 269.2 74.8 74.8" style="enable-background:new -358 269.2 74.8 74.8;" xml:space="preserve">
<style type="text/css">
	.st0{fill:#DA0E0D;}
	.st1{fill:#FFFFFF;stroke:#000000;stroke-miterlimit:10;}
</style>
<g id="XMLID_59_">
</g>
<g id="XMLID_60_">
</g>
<g id="XMLID_61_">
</g>
<g id="XMLID_62_">
</g>
<g id="XMLID_63_">
</g>
<g>
	<circle class="st0" cx="-320.6" cy="306.6" r="37.4"/>
	<g>
		<path d="M-319.6,320.4c4.4-13.6,8.7-27.1,13-40.6c-3.3-1-6.2-1.8-9.4-2.7c-3.7,13.9-7.3,27.5-10.9,41.2
			C-324.3,319-322,319.7-319.6,320.4z"/>
		<path d="M-332.6,335.6c3,0.9,5.8,1.7,8.6,2.5c1.2-4.1,2.3-7.9,3.4-11.8c-3-0.9-5.7-1.7-8.6-2.5
			C-330.4,327.9-331.5,331.8-332.6,335.6z"/>
	</g>
	<g>
		<path class="st1" d="M-320.6,319.4c4.4-13.6,8.7-27.1,13-40.6c-3.3-1-6.2-1.8-9.4-2.7c-3.7,13.9-7.3,27.5-10.9,41.2
			C-325.3,318-323,318.7-320.6,319.4z"/>
		<path class="st1" d="M-333.6,334.6c3,0.9,5.8,1.7,8.6,2.5c1.2-4.1,2.3-7.9,3.4-11.8c-3-0.9-5.7-1.7-8.6-2.5
			C-331.4,326.9-332.5,330.8-333.6,334.6z"/>
	</g>
</g>
</svg>
